<svg width="475" height="215" viewBox="0 0 475 215" fill="none" xmlns="http://www.w3.org/2000/svg">
<path d="M1.41923e-10 0.657081C-0.00012207 11.8055 78.7456 0.657081 78.7456 0.657081C94.8911 0.657081 108.765 3.07408 120.366 7.90806C132.064 12.742 141.056 19.8963 147.34 29.3709C153.624 38.8456 156.766 50.4954 156.766 64.3206C156.766 75.6322 154.833 85.3485 150.965 93.4696C147.195 101.494 141.829 108.213 134.868 113.627C128.004 118.945 119.931 123.199 110.65 126.389L96.8731 133.64H28.4238L28.1338 99.7054H79.0357C86.6733 99.7054 93.0059 98.3519 98.0332 95.6449C103.061 92.9379 106.831 89.1673 109.345 84.3334C111.955 79.4994 113.26 73.892 113.26 67.5111C113.26 60.7435 112.003 54.8944 109.49 49.9637C106.976 45.0331 103.157 41.2625 98.0332 38.6522C92.9092 36.0418 86.48 34.7367 78.7456 34.7367H43.5058V211.806H1.41923e-10C1.41923e-10 211.806 0.00012207 -10.4914 1.41923e-10 0.657081ZM118.046 211.806L69.8994 117.688L115.871 117.398L164.597 209.775V211.806H118.046Z" fill="#323232"/>
<path d="M157.224 134.945V131.9C157.224 120.395 158.868 109.808 162.155 100.14C165.442 90.3758 170.228 81.9164 176.512 74.7621C182.796 67.6078 190.531 62.0487 199.715 58.0848C208.9 54.0243 219.438 51.994 231.329 51.994C243.221 51.994 253.807 54.0243 263.089 58.0848C272.37 62.0487 280.153 67.6078 286.437 74.7621C292.818 81.9164 297.652 90.3758 300.939 100.14C304.226 109.808 305.87 120.395 305.87 131.9V134.945C305.87 146.353 304.226 156.94 300.939 166.705C297.652 176.372 292.818 184.832 286.437 192.083C280.153 199.237 272.418 204.796 263.234 208.76C254.049 212.724 243.511 214.706 231.619 214.706C219.728 214.706 209.141 212.724 199.86 208.76C190.676 204.796 182.893 199.237 176.512 192.083C170.228 184.832 165.442 176.372 162.155 166.705C158.868 156.94 157.224 146.353 157.224 134.945ZM198.99 131.9V134.945C198.99 141.519 199.57 147.659 200.73 153.363C201.89 159.067 203.727 164.094 206.241 168.445C208.851 172.699 212.235 176.034 216.392 178.451C220.55 180.868 225.625 182.077 231.619 182.077C237.42 182.077 242.399 180.868 246.556 178.451C250.714 176.034 254.049 172.699 256.563 168.445C259.077 164.094 260.913 159.067 262.074 153.363C263.33 147.659 263.959 141.519 263.959 134.945V131.9C263.959 125.519 263.33 119.525 262.074 113.917C260.913 108.213 259.028 103.186 256.418 98.8353C253.904 94.388 250.569 90.9076 246.411 88.3939C242.254 85.8802 237.227 84.6234 231.329 84.6234C225.432 84.6234 220.405 85.8802 216.247 88.3939C212.187 90.9076 208.851 94.388 206.241 98.8353C203.727 103.186 201.89 108.213 200.73 113.917C199.57 119.525 198.99 125.519 198.99 131.9Z" fill="#323232"/>
<path d="M310.388 0.657081C310.388 15.0086 389.134 0.657081 389.134 0.657081C405.279 0.657081 419.153 3.07408 430.755 7.90806C442.453 12.742 451.444 19.8963 457.728 29.3709C464.012 38.8456 467.154 50.4954 467.154 64.3206C467.154 75.6322 465.221 85.3485 461.354 93.4696C457.583 101.494 452.217 108.213 445.257 113.627C438.392 118.945 430.319 123.199 421.038 126.389L407.261 133.64H338.812L338.522 99.7054H389.424C397.062 99.7054 403.394 98.3519 408.422 95.6449C413.449 92.9379 417.219 89.1673 419.733 84.3334C422.343 79.4994 423.649 73.892 423.649 67.5111C423.649 60.7435 422.392 54.8944 419.878 49.9637C417.364 45.0331 413.546 41.2625 408.422 38.6522C403.298 36.0418 396.868 34.7367 389.134 34.7367H353.894V211.806H310.388C310.388 211.806 310.388 -13.6945 310.388 0.657081ZM428.434 211.806L380.288 117.688L426.259 117.398L474.986 209.775V211.806H428.434Z" fill="#323232"/>
</svg>
