<svg width="490" height="490" viewBox="0 0 490 490" fill="none" xmlns="http://www.w3.org/2000/svg">
<rect width="490" height="490" rx="57" fill="#BEFF6A"/>
<path d="M58 160.52C57.9999 169.347 120.169 160.52 120.169 160.52C132.916 160.52 143.869 162.434 153.029 166.261C162.265 170.089 169.363 175.754 174.325 183.255C179.286 190.757 181.767 199.981 181.767 210.928C181.767 219.884 180.24 227.577 177.187 234.007C174.21 240.361 169.974 245.681 164.478 249.968C159.059 254.178 152.685 257.546 145.358 260.072L134.481 265.814H80.4405L80.2116 238.945H120.398C126.428 238.945 131.428 237.873 135.397 235.73C139.366 233.586 142.343 230.601 144.327 226.773C146.388 222.946 147.419 218.506 147.419 213.454C147.419 208.096 146.426 203.464 144.442 199.56C142.457 195.656 139.442 192.671 135.397 190.604C131.352 188.537 126.276 187.504 120.169 187.504H92.3478V327.704H58C58 327.704 58.0001 151.693 58 160.52ZM151.197 327.704L113.185 253.183L149.48 252.953L187.949 326.096V327.704H151.197Z" fill="#323232"/>
<path d="M182.128 266.847V264.436C182.128 255.326 183.426 246.944 186.021 239.289C188.616 231.558 192.395 224.86 197.356 219.195C202.317 213.531 208.423 209.129 215.675 205.99C222.926 202.775 231.246 201.168 240.634 201.168C250.022 201.168 258.38 202.775 265.708 205.99C273.036 209.129 279.18 213.531 284.141 219.195C289.179 224.86 292.995 231.558 295.591 239.289C298.186 246.944 299.483 255.326 299.483 264.436V266.847C299.483 275.88 298.186 284.262 295.591 291.993C292.995 299.648 289.179 306.346 284.141 312.088C279.18 317.752 273.074 322.154 265.822 325.292C258.571 328.431 250.251 330 240.863 330C231.475 330 223.117 328.431 215.789 325.292C208.538 322.154 202.394 317.752 197.356 312.088C192.395 306.346 188.616 299.648 186.021 291.993C183.426 284.262 182.128 275.88 182.128 266.847ZM215.102 264.436V266.847C215.102 272.052 215.56 276.913 216.476 281.43C217.392 285.946 218.842 289.927 220.827 293.371C222.888 296.739 225.559 299.38 228.841 301.294C232.123 303.208 236.131 304.165 240.863 304.165C245.443 304.165 249.374 303.208 252.656 301.294C255.938 299.38 258.571 296.739 260.556 293.371C262.54 289.927 263.991 285.946 264.907 281.43C265.899 276.913 266.395 272.052 266.395 266.847V264.436C266.395 259.383 265.899 254.637 264.907 250.198C263.991 245.681 262.502 241.701 260.441 238.256C258.457 234.735 255.823 231.979 252.541 229.989C249.259 227.998 245.29 227.003 240.634 227.003C235.978 227.003 232.009 227.998 228.727 229.989C225.521 231.979 222.888 234.735 220.827 238.256C218.842 241.701 217.392 245.681 216.476 250.198C215.56 254.637 215.102 259.383 215.102 264.436Z" fill="#323232"/>
<path d="M303.051 160.52C303.051 171.884 365.22 160.52 365.22 160.52C377.967 160.52 388.92 162.434 398.08 166.261C407.315 170.089 414.414 175.754 419.375 183.255C424.337 190.757 426.817 199.981 426.817 210.928C426.817 219.884 425.291 227.577 422.238 234.007C419.261 240.361 415.025 245.681 409.529 249.968C404.11 254.178 397.736 257.546 390.409 260.072L379.532 265.814H325.491L325.262 238.945H365.449C371.479 238.945 376.479 237.873 380.448 235.73C384.417 233.586 387.394 230.601 389.378 226.773C391.439 222.946 392.47 218.506 392.47 213.454C392.47 208.096 391.477 203.464 389.493 199.56C387.508 195.656 384.493 192.671 380.448 190.604C376.402 188.537 371.327 187.504 365.22 187.504H337.399V327.704H303.051C303.051 327.704 303.051 149.157 303.051 160.52ZM396.248 327.704L358.236 253.183L394.53 252.953L433 326.096V327.704H396.248Z" fill="#323232"/>
</svg>
