<svg width="833" height="218" viewBox="0 0 833 218" fill="none" xmlns="http://www.w3.org/2000/svg">
<path d="M115.645 3.88001H166.54V141.775C166.54 158.208 163.108 172.128 156.245 183.535C149.382 194.845 139.763 203.4 127.39 209.2C115.017 215 100.468 217.9 83.745 217.9C67.215 217.9 52.6667 215 40.1 209.2C27.63 203.4 17.8667 194.845 10.81 183.535C3.85 172.128 0.37 158.208 0.37 141.775V3.88001H51.41V141.775C51.41 150.475 52.6667 157.58 55.18 163.09C57.6933 168.503 61.3667 172.467 66.2 174.98C71.0333 177.493 76.8817 178.75 83.745 178.75C90.705 178.75 96.5533 177.493 101.29 174.98C106.027 172.467 109.603 168.503 112.02 163.09C114.437 157.58 115.645 150.475 115.645 141.775V3.88001ZM280.075 3.88001V215H262.385V3.88001H280.075ZM352.43 3.88001V19.25H190.175V3.88001H352.43ZM402.02 58.11V215H384.765V58.11H402.02ZM381.72 12.725C381.72 9.43834 382.735 6.68334 384.765 4.46001C386.892 2.14001 389.792 0.980006 393.465 0.980006C397.138 0.980006 400.038 2.14001 402.165 4.46001C404.388 6.68334 405.5 9.43834 405.5 12.725C405.5 15.915 404.388 18.67 402.165 20.99C400.038 23.2133 397.138 24.325 393.465 24.325C389.792 24.325 386.892 23.2133 384.765 20.99C382.735 18.67 381.72 15.915 381.72 12.725ZM465.82 90.59V215H448.42V58.11H465.095L465.82 90.59ZM462.63 126.84L454.22 122.49C454.8 113.21 456.54 104.51 459.44 96.39C462.437 88.27 466.593 81.1167 471.91 74.93C477.227 68.7433 483.607 63.91 491.05 60.43C498.493 56.95 506.952 55.21 516.425 55.21C524.062 55.21 530.973 56.2733 537.16 58.4C543.443 60.43 548.76 63.6683 553.11 68.115C557.557 72.465 560.988 78.1683 563.405 85.225C565.822 92.2817 567.03 100.74 567.03 110.6V215H549.775V111.18C549.775 100.74 548.132 92.5717 544.845 86.675C541.655 80.7783 537.16 76.5733 531.36 74.06C525.657 71.5467 519.035 70.29 511.495 70.29C502.602 70.29 495.062 72.1267 488.875 75.8C482.785 79.3767 477.807 84.065 473.94 89.865C470.17 95.5683 467.367 101.707 465.53 108.28C463.693 114.757 462.727 120.943 462.63 126.84ZM566.885 113.21L555.285 113.5C555.768 105.863 557.508 98.565 560.505 91.605C563.598 84.645 567.803 78.4583 573.12 73.045C578.437 67.535 584.768 63.185 592.115 59.995C599.558 56.805 607.92 55.21 617.2 55.21C625.32 55.21 632.57 56.3217 638.95 58.545C645.33 60.6717 650.695 64.1033 655.045 68.84C659.492 73.48 662.875 79.425 665.195 86.675C667.515 93.925 668.675 102.625 668.675 112.775V215H651.275V112.63C651.275 101.513 649.632 92.91 646.345 86.82C643.155 80.6333 638.708 76.3317 633.005 73.915C627.302 71.4983 620.632 70.29 612.995 70.29C605.455 70.3867 598.833 71.7883 593.13 74.495C587.427 77.105 582.642 80.585 578.775 84.935C575.005 89.1883 572.105 93.78 570.075 98.71C568.142 103.64 567.078 108.473 566.885 113.21ZM773.365 217.9C763.118 217.9 753.693 216.015 745.09 212.245C736.583 208.475 729.14 203.158 722.76 196.295C716.477 189.432 711.595 181.312 708.115 171.935C704.732 162.462 703.04 152.118 703.04 140.905V134.67C703.04 122.587 704.828 111.663 708.405 101.9C711.982 92.1367 716.912 83.775 723.195 76.815C729.478 69.855 736.632 64.5383 744.655 60.865C752.775 57.095 761.282 55.21 770.175 55.21C780.132 55.21 788.977 56.9983 796.71 60.575C804.443 64.055 810.92 69.0333 816.14 75.51C821.457 81.89 825.468 89.4783 828.175 98.275C830.882 106.975 832.235 116.593 832.235 127.13V137.715H713.48V122.925H814.98V120.895C814.787 112.098 812.998 103.882 809.615 96.245C806.328 88.5117 801.398 82.2283 794.825 77.395C788.252 72.5617 780.035 70.145 770.175 70.145C762.828 70.145 756.062 71.6917 749.875 74.785C743.785 77.8783 738.517 82.325 734.07 88.125C729.72 93.8283 726.337 100.643 723.92 108.57C721.6 116.4 720.44 125.1 720.44 134.67V140.905C720.44 149.605 721.697 157.725 724.21 165.265C726.82 172.708 730.493 179.282 735.23 184.985C740.063 190.688 745.767 195.135 752.34 198.325C758.913 201.515 766.163 203.11 774.09 203.11C783.37 203.11 791.587 201.418 798.74 198.035C805.893 194.555 812.322 189.093 818.025 181.65L828.9 190.06C825.517 195.087 821.263 199.727 816.14 203.98C811.113 208.233 805.072 211.617 798.015 214.13C790.958 216.643 782.742 217.9 773.365 217.9Z" fill="#292929"/>
</svg>
